HIERARCHY
ROOT hip
{
	OFFSET 0.000000 0.000000 0.000000 
	CHANNELS 6 Xposition Yposition Zposition Xrotation Zrotation Yrotation
	JOINT abdomen
	{
		OFFSET 0.000000 3.402643 0.000000 
		CHANNELS 3 Xrotation Zrotation Yrotation
		JOINT chest
		{
			OFFSET 0.000000 8.438565 -0.680529 
			CHANNELS 3 Xrotation Zrotation Yrotation
			JOINT neck
			{
				OFFSET 0.000000 10.207942 -0.272212 
				CHANNELS 3 Xrotation Zrotation Yrotation
				JOINT head
				{
					OFFSET 0.000000 3.130431 0.000000 
					CHANNELS 3 Xrotation Zrotation Yrotation
					End Site
					{
						OFFSET 0.000000 3.130435 0.000000 
					}
				}
			}
			JOINT lCollar
			{
				OFFSET 3.470700 6.669187 -0.816635 
				CHANNELS 3 Yrotation Zrotation Xrotation
				JOINT lShldr
				{
					OFFSET 3.198488 0.000000 0.000000 
					CHANNELS 3 Zrotation Yrotation Xrotation
					JOINT lForeArm
					{
						OFFSET 10.139888 0.000000 0.000000 
						CHANNELS 3 Yrotation Zrotation Xrotation
						JOINT lHand
						{
							OFFSET 8.370511 0.000000 0.000000 
							CHANNELS 3 Zrotation Yrotation Xrotation
							End Site
							{
								OFFSET 4.083176 0.000000 0.000000 
							}
						}
					}
				}
			}
			JOINT rCollar
			{
				OFFSET -3.470700 6.669187 -0.816635 
				CHANNELS 3 Yrotation Zrotation Xrotation
				JOINT rShldr
				{
					OFFSET -3.198488 0.000000 0.000000 
					CHANNELS 3 Zrotation Yrotation Xrotation
					JOINT rForeArm
					{
						OFFSET -10.139888 0.000000 0.000000 
						CHANNELS 3 Yrotation Zrotation Xrotation
						JOINT rHand
						{
							OFFSET -8.370511 0.000000 0.000000 
							CHANNELS 3 Zrotation Yrotation Xrotation
							End Site
							{
								OFFSET -4.083176 0.000000 0.000000 
							}
						}
					}
				}
			}
		}
	}
	JOINT lThigh
	{
		OFFSET 5.308129 -1.633274 1.361059 
		CHANNELS 3 Xrotation Zrotation Yrotation
		JOINT lShin
		{
			OFFSET -2.041588 -20.007561 0.000000 
			CHANNELS 3 Xrotation Zrotation Yrotation
			JOINT lFoot
			{
				OFFSET 0.000000 -19.190928 -1.224953 
				CHANNELS 3 Xrotation Yrotation Zrotation
				End Site
				{
					OFFSET 0.000000 -2.449906 4.627600 
				}
			}
		}
	}
	JOINT rThigh
	{
		OFFSET -5.308129 -1.633274 1.361059 
		CHANNELS 3 Xrotation Zrotation Yrotation
		JOINT rShin
		{
			OFFSET 2.041588 -20.007561 0.000000 
			CHANNELS 3 Xrotation Zrotation Yrotation
			JOINT rFoot
			{
				OFFSET 0.000000 -19.190928 -1.224953 
				CHANNELS 3 Xrotation Yrotation Zrotation
				End Site
				{
					OFFSET 0.000000 -2.449906 4.627600 
				}
			}
		}
	}
}
MOTION
Frames: 9
Frame Time: 0.016667
4.451324 44.507675 -18.668098 6.144640 12.177800 -52.906399 -15.273100 -4.169880 0.179438 17.800501 -2.331290 -0.503126 17.845800 -3.051560 4.260350 12.508200 5.246820 2.092870 2.000000 -2.000000 0.000000 97.358902 -147.537003 7.544830 23.769800 -0.339967 0.055166 0.046374 -0.023570 -145.369003 -2.000000 2.000000 0.000000 84.873497 20.270800 -143.744995 -112.676003 0.165905 0.107383 -0.088003 0.084143 -168.552994 -25.125154 2.215328 5.033193 22.905603 2.331218 1.964844 -18.324667 23.259029 11.242843 -27.187754 0.549903 17.772799 27.602497 -2.182602 -2.348939 -12.339476 -13.643167 -2.551536 
4.592679 44.490433 -18.869408 6.003710 12.132400 -52.248901 -15.198800 -4.516660 -0.164678 17.907301 -2.643660 -0.698159 17.991400 -3.177260 4.276570 12.586000 5.206960 2.103990 2.000000 -2.000000 0.000000 -84.779099 -32.739399 -169.740005 24.385000 -0.339368 0.056506 0.046858 -0.026622 -146.473007 -2.000000 2.000000 0.000000 84.221603 20.732500 -145.169998 -114.130997 0.162946 0.106103 -0.086981 0.082460 -167.848999 -25.183035 2.401642 6.787316 25.146519 2.360950 2.123960 -17.034657 21.892782 10.117174 -27.391495 0.472396 17.828516 28.071125 -2.205829 -2.354426 -12.534457 -14.252726 -2.740619 
4.767870 44.455681 -19.026794 5.990670 11.996600 -51.610699 -15.141100 -4.803210 -0.625486 18.004400 -2.946300 -0.943122 17.986000 -3.377840 4.382900 12.605000 5.168020 2.158550 2.000000 -2.000000 0.000000 -86.887100 -32.733700 -167.307999 25.478800 -0.338268 0.058872 0.047787 -0.031650 -148.298996 -2.000000 2.000000 0.000000 83.433701 21.341600 -147.005005 -115.674004 0.159846 0.104664 -0.086798 0.082155 -167.722000 -25.180122 2.671496 8.002482 27.660822 2.381243 2.266468 -15.298290 20.115107 8.774881 -27.538752 0.456682 17.818222 28.406672 -2.189165 -2.382572 -12.565674 -14.829063 -2.901438 
4.968427 44.407684 -19.151264 6.075930 11.790700 -50.978901 -15.089800 -5.044170 -1.158380 18.101500 -3.248970 -1.218420 17.888700 -3.645030 4.573170 12.574900 5.120200 2.246340 2.000000 -2.000000 0.000000 -88.955597 -32.513802 -165.110992 26.933901 -0.336735 0.061987 0.058998 -0.038136 -150.671997 -2.000000 2.000000 0.000000 82.509499 22.039400 -149.171005 -117.276001 0.156669 0.103082 -0.087262 0.082929 -168.044998 -25.142881 3.020319 8.808047 30.341736 2.385277 2.411701 -13.287129 18.028311 7.360332 -27.717680 0.524464 17.760376 28.769850 -2.191331 -2.405126 -12.554826 -15.347234 -3.059814 
5.241915 44.371521 -19.257198 5.859500 11.464800 -50.948601 -14.952100 -5.316910 -1.528930 18.179100 -3.532120 -1.416220 17.783600 -4.112720 4.756780 12.562700 4.965840 2.359060 2.000000 -2.000000 0.000000 -91.092796 -32.655300 -162.957993 28.281601 -0.335245 0.064837 0.060704 -0.044530 -153.035004 -2.000000 2.000000 0.000000 81.644699 23.187300 -151.733002 -118.526001 0.154221 0.101786 -0.087931 0.084027 -168.503998 -24.598005 3.340358 9.647189 33.110336 2.385293 2.573583 -12.560292 16.277044 6.604396 -27.778400 0.547177 17.789244 29.189568 -2.219277 -2.422854 -11.845696 -15.503282 -2.856677 
5.529243 44.343334 -19.349653 5.574850 11.178700 -51.034801 -14.805100 -5.614010 -1.854320 18.276199 -3.805590 -1.606710 17.709000 -4.616400 4.949730 12.570100 4.801520 2.472020 2.000000 -2.000000 0.000000 -93.220200 -32.855499 -160.798996 29.482700 -0.333861 0.067346 0.062388 -0.049991 -155.076004 -2.000000 2.000000 0.000000 80.701797 24.384300 -154.376999 -119.678001 0.151990 0.100544 -0.088740 0.085327 -169.050995 -23.878462 3.559254 10.449232 35.709984 2.383318 2.698141 -12.090417 14.854939 6.043253 -27.759405 0.464207 17.875095 29.424572 -2.223419 -2.428756 -11.064605 -15.605193 -2.650336 
5.826759 44.350796 -19.380547 5.086980 11.177600 -51.276798 -14.690900 -5.967430 -2.052980 18.520399 -4.011150 -1.752380 17.782400 -5.055770 5.130330 12.616500 4.627000 2.576070 2.000000 -2.000000 0.000000 -95.211098 -33.348701 -158.639999 29.863600 -0.333411 0.068135 0.062524 -0.050407 -155.231995 -2.000000 2.000000 0.000000 79.572998 25.590799 -156.830994 -120.596001 0.150231 0.099523 -0.090079 0.097190 -169.938995 -22.884840 3.227017 10.874379 37.290253 2.365832 2.778442 -11.773680 14.639515 5.893133 -27.797266 0.046849 18.293856 29.530622 -2.241403 -2.420893 -10.934741 -15.722006 -2.633132 
6.153842 44.361355 -19.395824 4.727240 11.095900 -51.479099 -14.696200 -6.161790 -2.434090 18.589001 -4.001550 -1.972340 17.798000 -5.480690 5.506600 12.605600 4.549890 2.749200 2.000000 -2.000000 0.000000 -97.153603 -33.940601 -156.919998 29.922199 -0.333341 0.068257 0.062176 -0.049341 -154.832001 -2.000000 2.000000 0.000000 78.072304 26.698400 -158.673996 -121.474998 0.148563 0.098519 -0.091559 0.099425 -170.895996 -21.749582 2.924292 10.984078 38.240490 2.378039 2.821883 -11.510638 14.400912 5.764064 -27.798796 -0.262843 18.597839 29.537504 -2.272326 -2.409024 -11.041527 -15.812749 -2.684428 
6.520302 44.376015 -19.389872 4.534880 10.884600 -51.631001 -14.846700 -6.153390 -3.045490 18.413500 -3.708350 -2.263950 17.713699 -5.887560 6.142140 12.518300 4.609070 3.024300 2.000000 -2.000000 0.000000 -99.009201 -34.709702 -155.804993 29.551100 -0.333780 0.067488 0.061246 -0.046366 -153.718994 -2.000000 2.000000 0.000000 76.150703 27.667400 -159.667999 -122.305000 0.147001 0.097548 179.906998 179.897995 8.049060 -20.555309 2.698969 10.621734 38.658985 2.416390 2.826424 -11.520633 14.151079 5.671709 -27.736593 -0.477812 18.760923 29.378693 -2.287059 -2.386690 -11.394675 -15.805213 -2.789194 
